# xmcd CD database file
#
# Track frame offsets:
#	150
#	57842
#	84643
#	116957
#	151981
#	180738
#	204041
#	240229
#	271550
#	297696
#
# Disc length: 4481 seconds
#
# Revision: 16
# Processed by: cddbd v1.5.2PL0 Copyright (c) Steve Scherf et al.
# Submitted via: CDex 1.70beta2
#
DISCID=83117f0a
DTITLE=Eric Clapton - Blues - CD 2 (Live)
DYEAR=1999
DGENRE=Classical
TTITLE0=Stormy Monday
TTITLE1=Worried Life Blues
TTITLE2=Early In The Morning
TTITLE3=Have You Ever Loved A Woman
TTITLE4=Wonderful Tonight
TTITLE5=Kind Hearted Woman
TTITLE6=Double Trouble
TTITLE7=Driftin' Blues
TTITLE8=Crossroads
TTITLE9=Further On Up The Road (prev. unreleased Version)
EXTD=YEAR: 1999
EXTT0=
EXTT1=
EXTT2=
EXTT3=
EXTT4=
EXTT5=
EXTT6=
EXTT7=
EXTT8=
EXTT9=
PLAYORDER=
